PathFileType	3	(X/Y/Z)	D:\minhoCalibration\240510\subject4_KPNP\preferred\preferred13.trc
DataRate	CameraRate	NumFrames	NumMarkers	Units	OrigDataRate	OrigDataStartFrame	OrigNumFrames
200.0	200.0	12	10	mm	200.0	567	86	
Frame#	Time	Left_Ankle_Outer1			Left_Ankle_Inner1			Left_Knee_Outer1			Left_Knee_Inner1			Left_Wrist1			Right_Wrist1			Right_Knee_Inner1			Right_Knee_Outer1			Right_Ankle_Inner1			Right_Ankle_Outer1			
		X1	Y1	Z1	X2	Y2	Z2	X3	Y3	Z3	X4	Y4	Z4	X5	Y5	Z5	X6	Y6	Z6	X7	Y7	Z7	X8	Y8	Z8	X9	Y9	Z9	X10	Y10	Z10	
567	2.825	-415.73053	1182.6674	258.10184	-428.24277	1078.7335	256.11081	-344.4213	1109.2496	756.3183	-370.0748	1009.1958	725.26514	-481.91638	1210.1847	1125.8287	-453.24295	903.92627	1338.6322	-368.34363	525.4837	1061.6394	-347.79987	540.30109	1170.8643	-565.17224	97.060646	1193.156	-539.95996	108.46465	1243.6272
568	2.83	-426.86957	1176.5602	257.18594	-426.71216	1071.5436	257.96915	-341.67688	1112.3455	757.23413	-358.10098	1015.6381	727.28088	-488.31842	1210.0016	1121.978	-449.01929	904.41022	1333.7886	-369.90686	523.90009	1057.2518	-347.83905	539.10156	1165.6498	-564.94739	97.098961	1193.5995	-538.95349	108.89833	1244.5479
569	2.835	-439.24506	1167.8547	256.3107	-422.40558	1063.04	257.74191	-339.92844	1114.6492	759.34216	-349.03653	1024.5226	730.89362	-494.87973	1209.7863	1117.8459	-444.93597	904.47717	1328.6482	-370.9502	522.56659	1052.374	-347.99179	537.99451	1159.6799	-563.75549	96.763237	1195.6398	-537.55298	109.16445	1245.0803
570	2.84	-447.9295	1158.9572	255.00179	-419.83154	1055.9852	256.4523	-340.19089	1116.2716	761.67792	-344.4202	1033.9642	734.65826	-501.99973	1209.4399	1113.8633	-441.1665	904.14642	1323.1688	-372.29126	521.30859	1047.425	-347.45059	537.66229	1154.261	-563.42175	96.787956	1196.8368	-536.14471	109.82653	1245.7216
571	2.845	-453.0488	1150.7267	252.62946	-420.30536	1050.6792	255.9025	-343.31781	1118.9388	763.18994	-343.34534	1042.886	736.37872	-509.68765	1208.3412	1110.1052	-437.90656	903.43457	1317.6281	-373.6171	520.55011	1042.3802	-346.97577	537.41248	1148.6143	-562.73175	97.161095	1198.0242	-534.71393	110.67123	1246.1892
572	2.85	-457.04489	1141.9014	249.52789	-420.83264	1043.2136	256.07288	-349.74826	1124.2385	763.52002	-345.83691	1049.2179	735.93042	-517.11572	1206.8367	1106.7374	-435.21381	902.2995	1311.8041	-375.15735	520.34363	1037.3767	-346.95132	537.33942	1142.751	-561.78497	97.917854	1199.2899	-533.33832	111.6437	1246.4545
573	2.855	-459.89532	1132.0656	245.98108	-420.18939	1034.9518	255.52753	-358.80182	1132.1292	763.04767	-349.24506	1054.0858	735.12079	-524.47314	1205.1755	1103.678	-433.24594	900.90564	1305.9136	-377.31195	519.93146	1032.5022	-346.99826	537.56354	1137.0803	-561.52167	98.353775	1199.7097	-532.0343	112.68797	1246.4879
574	2.86	-462.16232	1121.4543	242.72276	-419.73389	1026.2673	258.22714	-370.62921	1139.6537	761.47821	-352.26825	1058.5771	734.42322	-531.74707	1203.808	1100.9515	-431.88403	899.53259	1299.9235	-378.85965	519.82068	1027.4346	-347.21967	537.91333	1131.5458	-561.06989	99.137924	1200.1056	-530.909	113.76079	1246.1295
575	2.865	-464.24347	1109.8741	239.77345	-415.34326	1017.6249	255.58954	-384.3887	1145.8206	758.24249	-355.10175	1062.8383	733.6994	-538.66547	1202.3693	1098.91	-431.00165	898.04297	1293.8306	-381.17035	519.8407	1022.8234	-347.40948	538.35895	1126.3243	-560.41388	99.322495	1199.7565	-530.02179	114.79557	1245.5347
576	2.87	-466.07516	1097.5913	237.36485	-410.42148	1009.9816	254.64796	-400.25427	1149.1866	752.80627	-358.5513	1066.5704	732.68048	-544.71869	1200.884	1097.3928	-430.25806	896.4306	1287.7472	-383.77542	519.77356	1018.4611	-347.6701	538.67603	1121.1237	-560.96619	100.08485	1199.9325	-529.31598	115.79819	1244.6879
577	2.875	-467.38135	1084.1895	235.11113	-406.47781	1000.5609	251.35335	-416.13217	1149.3425	746.59363	-362.02484	1069.6613	731.9361	-550.77576	1200.1458	1096.4727	-429.47116	894.87891	1282.2728	-385.9256	519.99939	1014.1592	-347.89249	538.95184	1116.2778	-560.81506	100.75706	1199.817	-528.68695	116.63008	1243.8646
578	2.88	-467.67773	1070.1252	232.95338	-400.98163	991.89465	251.12814	-431.18549	1146.8206	740.66663	-363.90778	1073.0771	731.8031	-555.97583	1199.2832	1096.047	-428.15277	893.03717	1277.9717	-388.50137	520.15802	1010.2959	-348.07776	539.06805	1111.6599	-560.84827	100.90889	1199.3837	-528.25208	117.32838	1243.0402
